<svg version="1.1" viewBox="0.0 0.0 1254.3727034120734 148.8713910761155" fill="none" stroke="none" stroke-linecap="square" stroke-miterlimit="10" xmlns:xlink="http://www.w3.org/1999/xlink" xmlns="http://www.w3.org/2000/svg"><clipPath id="p.0"><path d="m0 0l1254.3727 0l0 148.87138l-1254.3727 0l0 -148.87138z" clip-rule="nonzero"/></clipPath><g clip-path="url(#p.0)"><path fill="#000000" fill-opacity="0.0" d="m0 0l1254.3727 0l0 148.87138l-1254.3727 0z" fill-rule="evenodd"/><path fill="#0000ff" d="m0 0.60367453l595.1811 0l0 151.74803l-595.1811 0z" fill-rule="evenodd"/><path fill="#ff9900" d="m27.765625 109.203674l0 -65.328125l26.234375 0q7.09375 0 12.828125 2.34375q5.75 2.328125 9.890625 6.71875q4.15625 4.375 6.34375 10.359375q2.203125 5.96875 2.203125 13.234375q0 7.28125 -2.203125 13.3125q-2.1875 6.015625 -6.296875 10.359375q-4.109375 4.328125 -9.890625 6.671875q-5.78125 2.328125 -12.875 2.328125l-26.234375 0zm12.140625 -9.421875l-0.9375 -1.78125l14.5625 0q4.578125 0 8.171875 -1.484375q3.59375 -1.5 6.109375 -4.296875q2.515625 -2.796875 3.8125 -6.765625q1.3125 -3.96875 1.3125 -8.921875q0 -4.9375 -1.3125 -8.90625q-1.296875 -3.96875 -3.859375 -6.765625q-2.5625 -2.796875 -6.109375 -4.28125q-3.546875 -1.5 -8.125 -1.5l-14.84375 0l1.21875 -1.59375l0 46.296875zm57.774475 9.421875l0 -49.1875l11.46875 0l0 49.1875l-11.46875 0zm5.59375 -59.640625q-3.453125 0 -5.375 -1.71875q-1.90625 -1.734375 -1.90625 -4.90625q0 -2.984375 1.953125 -4.84375q1.96875 -1.875 5.328125 -1.875q3.546875 0 5.453125 1.734375q1.921875 1.71875 1.921875 4.984375q0 2.890625 -1.96875 4.765625q-1.953125 1.859375 -5.40625 1.859375zm36.204544 59.640625l-20.71875 -49.1875l12.515625 0l14.0 36.78125l-2.421875 0.640625l14.734375 -37.421875l12.234375 0l-21.75 49.1875l-8.59375 0zm40.050568 0l0 -49.1875l11.46875 0l0 49.1875l-11.46875 0zm5.59375 -59.640625q-3.453125 0 -5.375 -1.71875q-1.90625 -1.734375 -1.90625 -4.90625q0 -2.984375 1.953125 -4.84375q1.96875 -1.875 5.328125 -1.875q3.546875 0 5.453125 1.734375q1.921875 1.71875 1.921875 4.984375q0 2.890625 -1.96875 4.765625q-1.953125 1.859375 -5.40625 1.859375zm40.22017 60.578125q-6.53125 0 -11.71875 -3.3125q-5.171875 -3.3125 -8.203125 -9.046875q-3.03125 -5.75 -3.03125 -13.21875q0 -7.375 2.984375 -13.15625q2.984375 -5.78125 8.15625 -9.09375q5.1875 -3.3125 11.71875 -3.3125q3.546875 0 6.859375 1.125q3.3125 1.109375 5.921875 3.03125q2.625 1.90625 4.15625 4.234375q1.546875 2.328125 1.734375 4.859375l-3.078125 0.375l0 -32.484375l11.484375 0l0 69.0625l-11.109375 0l-0.28125 -11.578125l2.234375 0.1875q-0.09375 2.34375 -1.640625 4.484375q-1.53125 2.140625 -3.96875 3.921875q-2.421875 1.765625 -5.640625 2.84375q-3.21875 1.078125 -6.578125 1.078125zm2.25 -9.703125q4.015625 0 7.09375 -2.046875q3.078125 -2.0625 4.796875 -5.609375q1.734375 -3.546875 1.734375 -8.21875q0 -4.578125 -1.734375 -8.15625q-1.71875 -3.59375 -4.796875 -5.59375q-3.078125 -2.015625 -7.09375 -2.015625q-4.015625 0 -7.09375 2.015625q-3.078125 2.0 -4.8125 5.59375q-1.71875 3.578125 -1.71875 8.15625q0 4.671875 1.71875 8.21875q1.734375 3.546875 4.8125 5.609375q3.078125 2.046875 7.09375 2.046875zm60.83902 9.703125q-7.734375 0 -13.671875 -3.265625q-5.921875 -3.265625 -9.234375 -8.90625q-3.3125 -5.65625 -3.3125 -12.9375q0 -5.78125 1.859375 -10.546875q1.875 -4.765625 5.1875 -8.265625q3.3125 -3.5 7.921875 -5.40625q4.625 -1.90625 10.140625 -1.90625q4.84375 0 9.046875 1.859375q4.203125 1.859375 7.28125 5.09375q3.078125 3.21875 4.703125 7.65625q1.640625 4.421875 1.546875 9.65625l-0.09375 4.0l-39.84375 0l-2.15625 -7.828125l32.390625 0l-1.5 1.578125l0 -2.046875q-0.265625 -2.890625 -1.859375 -5.078125q-1.59375 -2.203125 -4.0625 -3.453125q-2.46875 -1.265625 -5.453125 -1.265625q-4.578125 0 -7.703125 1.78125q-3.125 1.765625 -4.71875 5.078125q-1.578125 3.3125 -1.578125 8.25q0 4.765625 2.0 8.3125q2.015625 3.546875 5.6875 5.46875q3.6875 1.90625 8.640625 1.90625q3.453125 0 6.34375 -1.125q2.890625 -1.125 6.25 -4.015625l5.703125 7.9375q-2.53125 2.328125 -5.75 3.96875q-3.21875 1.625 -6.765625 2.5625q-3.546875 0.9375 -7.0 0.9375zm31.643463 -0.9375l0 -49.1875l11.203125 0l0.1875 10.078125l-2.15625 1.125q0.9375 -3.359375 3.640625 -6.109375q2.71875 -2.75 6.4375 -4.421875q3.734375 -1.6875 7.65625 -1.6875q5.609375 0 9.375 2.234375q3.78125 2.234375 5.6875 6.71875q1.921875 4.484375 1.921875 11.203125l0 30.046875l-11.46875 0l0 -29.21875q0 -3.71875 -1.03125 -6.1875q-1.03125 -2.484375 -3.1875 -3.640625q-2.140625 -1.171875 -5.21875 -1.078125q-2.515625 0 -4.625 0.796875q-2.09375 0.78125 -3.640625 2.234375q-1.53125 1.4375 -2.421875 3.3125q-0.875 1.859375 -0.875 4.109375l0 29.671875l-5.703125 0q-1.671875 0 -3.125 0q-1.4375 0 -2.65625 0zm76.618164 0.9375q-6.53125 0 -11.71875 -3.3125q-5.171875 -3.3125 -8.203125 -9.046875q-3.03125 -5.75 -3.03125 -13.21875q0 -7.375 2.984375 -13.15625q2.984375 -5.78125 8.15625 -9.09375q5.1875 -3.3125 11.71875 -3.3125q3.546875 0 6.859375 1.125q3.3125 1.109375 5.921875 3.03125q2.625 1.90625 4.15625 4.234375q1.546875 2.328125 1.734375 4.859375l-3.078125 0.375l0 -32.484375l11.484375 0l0 69.0625l-11.109375 0l-0.28125 -11.578125l2.234375 0.1875q-0.09375 2.34375 -1.640625 4.484375q-1.53125 2.140625 -3.96875 3.921875q-2.421875 1.765625 -5.640625 2.84375q-3.21875 1.078125 -6.578125 1.078125zm2.25 -9.703125q4.015625 0 7.09375 -2.046875q3.078125 -2.0625 4.796875 -5.609375q1.734375 -3.546875 1.734375 -8.21875q0 -4.578125 -1.734375 -8.15625q-1.71875 -3.59375 -4.796875 -5.59375q-3.078125 -2.015625 -7.09375 -2.015625q-4.015625 0 -7.09375 2.015625q-3.078125 2.0 -4.8125 5.59375q-1.71875 3.578125 -1.71875 8.15625q0 4.671875 1.71875 8.21875q1.734375 3.546875 4.8125 5.609375q3.078125 2.046875 7.09375 2.046875zm60.292145 9.703125q-7.375 0 -13.171875 -3.3125q-5.78125 -3.3125 -9.140625 -9.09375q-3.359375 -5.796875 -3.359375 -13.171875q0 -7.375 3.359375 -13.15625q3.359375 -5.78125 9.140625 -9.09375q5.796875 -3.3125 13.171875 -3.3125q7.265625 0 13.046875 3.3125q5.796875 3.3125 9.109375 9.09375q3.3125 5.78125 3.3125 13.15625q0 7.375 -3.3125 13.171875q-3.3125 5.78125 -9.109375 9.09375q-5.78125 3.3125 -13.046875 3.3125zm0 -10.171875q4.0 0 7.125 -2.046875q3.140625 -2.0625 4.953125 -5.515625q1.828125 -3.453125 1.734375 -7.84375q0.09375 -4.484375 -1.734375 -7.9375q-1.8125 -3.453125 -4.953125 -5.453125q-3.125 -2.0 -7.125 -2.0q-4.015625 0 -7.234375 2.0q-3.21875 2.0 -5.0 5.5q-1.765625 3.5 -1.765625 7.890625q0 4.390625 1.765625 7.84375q1.78125 3.453125 5.0 5.515625q3.21875 2.046875 7.234375 2.046875zm58.502472 10.171875q-8.3906555 0 -14.7344055 -3.078125q-6.34375 -3.078125 -10.828125 -9.0625l7.1875 -9.421875q4.75 6.15625 9.234375 8.59375q4.4844055 2.421875 10.0781555 2.421875q3.171875 0 5.78125 -0.984375q2.625 -0.984375 4.109375 -2.703125q1.5 -1.734375 1.5 -3.96875q0 -1.59375 -0.609375 -2.9375q-0.609375 -1.359375 -1.828125 -2.421875q-1.203125 -1.078125 -2.984375 -2.015625q-1.765625 -0.9375 -4.015625 -1.578125q-2.234375 -0.65625 -4.9375 -1.21875q-6.9062805 -1.40625 -11.4375305 -4.0625q-4.515625 -2.65625 -6.765625 -6.671875q-2.234375 -4.015625 -2.234375 -9.421875q0 -4.109375 1.8125 -7.5625q1.828125 -3.453125 5.0 -5.96875q3.171875 -2.53125 7.375 -3.921875q4.2031555 -1.40625 9.0469055 -1.40625q7.65625 0 13.53125 2.765625q5.890625 2.75 9.71875 8.15625l-6.90625 8.40625q-3.1875 -4.296875 -7.34375 -6.484375q-4.140625 -2.203125 -9.0 -2.203125q-3.359375 0 -5.828125 0.9375q-2.4687805 0.9375 -3.8750305 2.671875q-1.40625 1.71875 -1.40625 4.140625q0 1.859375 0.84375 3.3125q0.84375 1.453125 2.375 2.578125q1.5469055 1.109375 3.9687805 1.953125q2.4375 0.828125 5.515625 1.484375q5.125 1.03125 9.234375 2.765625q4.109375 1.71875 7.0 4.109375q2.890625 2.375 4.375 5.40625q1.5 3.03125 1.5 6.765625q0 6.4375 -3.03125 11.0625q-3.03125 4.609375 -8.546875 7.09375q-5.5 2.46875 -12.875 2.46875zm-5.59375 7.5625l0.375 -42.75l8.5 3.078125l0.359375 39.671875l-9.234375 0zm12.140625 -39.671875l-8.5 -3.078125l-0.375 -38.921875l9.234375 0l-0.359375 42.0z" fill-rule="nonzero"/><path fill="#ff9900" d="m595.1811 1.8480084l0 0c0 -0.68722665 0.5571289 -1.2443339 1.2443237 -1.2443339l656.50354 0c0.32995605 0 0.6464844 0.1310991 0.87976074 0.36445695c0.23339844 0.23335785 0.36450195 0.5498591 0.36450195 0.8798769l0 149.25937c0 0.68722534 -0.5571289 1.2443237 -1.2442627 1.2443237l-656.50354 0c-0.6871948 0 -1.2443237 -0.5570984 -1.2443237 -1.2443237z" fill-rule="evenodd"/><path fill="#000000" fill-opacity="0.0" d="m547.9055 -1.4383202l706.2677 0l0 151.74803l-706.2677 0z" fill-rule="evenodd"/><path fill="#ffffff" d="m620.74927 107.161674l-7.828125 -8.21875l-2.984375 -2.984375l-15.21875 -16.796875q-2.796875 -2.984375 -5.09375 -5.921875q-2.28125 -2.9375 -3.828125 -5.640625q-1.53125 -2.71875 -2.421875 -5.234371q-0.890625 -2.515625 -0.890625 -4.765625q0 -4.84375 2.515625 -8.671875q2.53125 -3.828125 7.0 -6.015625q4.484375 -2.203125 10.375 -2.203125q4.375 0 8.203125 1.546875q3.828125 1.53125 6.578125 4.296875q2.765625 2.75 3.96875 6.484375l-8.859375 5.5q-1.6875 -4.203125 -4.015625 -5.921875q-2.328125 -1.734375 -5.6875 -1.734375q-2.625 0 -4.40625 0.796875q-1.765625 0.796875 -2.703125 2.34375q-0.921875 1.53125 -0.921875 3.765625q0 1.96875 1.296875 4.484375q1.3125 2.5156212 3.21875 5.140621q1.921875 2.609375 3.96875 4.84375q2.0625 2.234375 3.5625 3.921875l10.90625 12.03125l4.015625 4.015625l13.8125 14.9375l-14.5625 0zm-24.625 0.9375q-6.8125 0 -12.421875 -2.84375q-5.59375 -2.859375 -8.859375 -7.609375q-3.265625 -4.765625 -3.265625 -10.453125q0 -7.1875 4.0 -12.59375q4.015625 -5.421875 11.859375 -8.3125l7.1875 7.84375q-5.6875 1.296875 -8.546875 4.15625q-2.84375 2.84375 -2.84375 7.59375q0 3.640625 1.765625 6.40625q1.78125 2.75 5.046875 4.296875q3.265625 1.53125 7.84375 1.53125q4.015625 0 7.421875 -1.578125q3.40625 -1.59375 6.109375 -4.53125q2.703125 -2.953125 4.46875 -7.046875q1.78125 -4.109375 2.4375 -9.0625l10.546875 0q-0.75 5.78125 -2.765625 10.734375q-2.0 4.953125 -4.9375 8.921875q-2.9375 3.953125 -6.765625 6.765625q-3.828125 2.796875 -8.40625 4.296875q-4.5625 1.484375 -9.875 1.484375z" fill-rule="nonzero"/><path fill="#0000ff" d="m673.5727 108.099174q-7.09375 0 -12.96875 -2.421875q-5.875 -2.4375 -10.171875 -6.953125q-4.296875 -4.53125 -6.671875 -10.734375q-2.375 -6.21875 -2.375 -13.59375q0 -7.078125 2.515625 -13.140621q2.515625 -6.078125 7.0 -10.640625q4.484375 -4.578125 10.453125 -7.09375q5.96875 -2.53125 12.96875 -2.53125q4.765625 0 9.234375 1.40625q4.484375 1.390625 8.21875 3.875q3.734375 2.46875 6.25 5.734375l-7.734375 8.484375q-2.4375 -2.515625 -5.0 -4.234375q-2.5625 -1.734375 -5.328125 -2.609375q-2.75 -0.890625 -5.640625 -0.890625q-4.296875 0 -8.078125 1.59375q-3.765625 1.578125 -6.53125 4.46875q-2.75 2.890625 -4.34375 6.859371q-1.578125 3.96875 -1.578125 8.8125q0 4.953125 1.53125 8.96875q1.546875 4.015625 4.390625 6.90625q2.859375 2.890625 6.8125 4.4375q3.96875 1.53125 8.734375 1.53125q3.078125 0 5.96875 -0.828125q2.890625 -0.84375 5.359375 -2.375q2.484375 -1.546875 4.53125 -3.609375l5.984375 9.609375q-2.25 2.53125 -5.984375 4.578125q-3.734375 2.046875 -8.359375 3.21875q-4.609375 1.171875 -9.1875 1.171875zm56.570923 0q-7.375 0 -13.171875 -3.3125q-5.78125 -3.3125 -9.140625 -9.09375q-3.359375 -5.796875 -3.359375 -13.171875q0 -7.375 3.359375 -13.15625q3.359375 -5.781246 9.140625 -9.093746q5.796875 -3.3125 13.171875 -3.3125q7.265625 0 13.046875 3.3125q5.796875 3.3125 9.109375 9.093746q3.3125 5.78125 3.3125 13.15625q0 7.375 -3.3125 13.171875q-3.3125 5.78125 -9.109375 9.09375q-5.78125 3.3125 -13.046875 3.3125zm0 -10.171875q4.0 0 7.125 -2.046875q3.140625 -2.0625 4.953125 -5.515625q1.828125 -3.453125 1.734375 -7.84375q0.09375 -4.484375 -1.734375 -7.9375q-1.8125 -3.453125 -4.953125 -5.453125q-3.125 -2.0 -7.125 -2.0q-4.015625 0 -7.234375 2.0q-3.21875 2.0 -5.0 5.5q-1.765625 3.5 -1.765625 7.890625q0 4.390625 1.765625 7.84375q1.78125 3.453125 5.0 5.515625q3.21875 2.046875 7.234375 2.046875zm35.549316 9.234375l0 -49.187496l11.296875 0l0.1875 9.890621l-1.875 0.75q0.84375 -2.421875 2.515625 -4.515625q1.6875 -2.1093712 4.015625 -3.6406212q2.34375 -1.546875 4.953125 -2.4375q2.609375 -0.890625 5.3125 -0.890625q4.015625 0 7.140625 1.265625q3.140625 1.265625 5.234375 3.96875q2.09375 2.7031212 3.125 6.906246l-1.765625 -0.375l0.734375 -1.5q1.03125 -2.234375 2.890625 -4.046871q1.875 -1.828125 4.203125 -3.265625q2.34375 -1.453125 4.90625 -2.203125q2.5625 -0.75 5.078125 -0.75q5.609375 0 9.34375 2.25q3.734375 2.234375 5.59375 6.812496q1.859375 4.578125 1.859375 11.296875l0 29.671875l-11.5625 0l0 -28.9375q0 -3.734375 -0.984375 -6.15625q-0.984375 -2.421875 -2.984375 -3.578125q-2.0 -1.171875 -5.0 -1.171875q-2.328125 0 -4.4375 0.796875q-2.09375 0.78125 -3.59375 2.234375q-1.484375 1.4375 -2.328125 3.3125q-0.828125 1.859375 -0.828125 4.109375l0 29.390625l-11.578125 0l0 -29.03125q0 -3.546875 -1.03125 -5.921875q-1.015625 -2.375 -2.984375 -3.625q-1.953125 -1.265625 -4.75 -1.265625q-2.34375 0 -4.40625 0.796875q-2.046875 0.78125 -3.546875 2.1875q-1.484375 1.390625 -2.328125 3.265625q-0.828125 1.859375 -0.828125 4.109375l0 29.484375l-11.578125 0zm87.542725 20.531258l0 -69.71875l11.296875 0l0.1875 11.203121l-1.96875 -0.84375q0.5625 -2.890625 3.171875 -5.453121q2.625 -2.5625 6.390625 -4.15625q3.78125 -1.59375 7.890625 -1.59375q6.53125 0 11.609375 3.28125q5.09375 3.265625 8.03125 8.953121q2.953125 5.6875 2.953125 13.15625q0 7.375 -2.953125 13.125q-2.9375 5.734375 -8.03125 9.046875q-5.078125 3.3125 -11.421875 3.3125q-4.296875 0 -8.265625 -1.671875q-3.953125 -1.6875 -6.71875 -4.390625q-2.75 -2.71875 -3.390625 -5.703125l2.796875 -1.296875l0 32.750008l-11.578125 0zm24.828125 -29.859383q3.921875 0 7.0 -1.953125q3.078125 -1.96875 4.796875 -5.421875q1.734375 -3.453125 1.734375 -7.9375q0 -4.484375 -1.6875 -7.890625q-1.671875 -3.40625 -4.75 -5.359375q-3.078125 -1.953125 -7.09375 -1.953125q-4.109375 0 -7.140625 1.90625q-3.03125 1.90625 -4.8125 5.359375q-1.765625 3.453125 -1.765625 7.9375q0 4.484375 1.765625 7.9375q1.78125 3.453125 4.8125 5.421875q3.03125 1.953125 7.140625 1.953125zm53.573364 10.265625q-6.078125 0 -11.03125 -3.359375q-4.9375 -3.359375 -7.921875 -9.140625q-2.984375 -5.796875 -2.984375 -13.171875q0 -7.375 2.984375 -13.15625q2.984375 -5.781246 8.109375 -9.046871q5.140625 -3.265625 11.578125 -3.265625q3.734375 0 6.8125 1.078125q3.09375 1.0625 5.421875 3.03125q2.328125 1.953125 3.859375 4.468746q1.546875 2.515625 2.109375 5.40625l-2.515625 -0.640625l0 -12.328121l11.578125 0l0 49.187496l-11.671875 0l0 -11.765625l2.703125 -0.453125q-0.65625 2.515625 -2.390625 4.890625q-1.71875 2.375 -4.28125 4.203125q-2.5625 1.8125 -5.6875 2.9375q-3.125 1.125 -6.671875 1.125zm3.171875 -10.171875q4.015625 0 7.09375 -1.953125q3.078125 -1.96875 4.796875 -5.46875q1.734375 -3.5 1.734375 -8.078125q0 -4.484375 -1.734375 -7.9375q-1.71875 -3.453125 -4.796875 -5.40625q-3.078125 -1.953125 -7.09375 -1.953125q-4.015625 0 -7.046875 1.953125q-3.03125 1.953125 -4.71875 5.40625q-1.671875 3.453125 -1.671875 7.9375q0 4.578125 1.671875 8.078125q1.6875 3.5 4.71875 5.46875q3.03125 1.953125 7.046875 1.953125zm38.166748 9.234375l0 -49.187496l11.203125 0l0.1875 10.078121l-2.15625 1.125q0.9375 -3.359375 3.640625 -6.109371q2.71875 -2.75 6.4375 -4.421875q3.734375 -1.6875 7.65625 -1.6875q5.609375 0 9.375 2.234375q3.78125 2.234375 5.6875 6.718746q1.921875 4.484375 1.921875 11.203125l0 30.046875l-11.46875 0l0 -29.21875q0 -3.71875 -1.03125 -6.1875q-1.03125 -2.484375 -3.1875 -3.640625q-2.140625 -1.171875 -5.21875 -1.078125q-2.515625 0 -4.625 0.796875q-2.09375 0.78125 -3.640625 2.234375q-1.53125 1.4375 -2.421875 3.3125q-0.875 1.859375 -0.875 4.109375l0 29.671875l-5.703125 0q-1.671875 0 -3.125 0q-1.4375 0 -2.65625 0zm56.836975 0l0 -69.0625l11.390625 0l0 29.953121l-2.15625 1.125q0.9375 -3.359375 3.640625 -6.109371q2.71875 -2.75 6.4375 -4.421875q3.734375 -1.6875 7.65625 -1.6875q5.609375 0 9.375 2.234375q3.78125 2.234375 5.6875 6.718746q1.921875 4.484375 1.921875 11.203125l0 30.046875l-11.46875 0l0 -29.21875q0 -3.71875 -1.03125 -6.1875q-1.03125 -2.484375 -3.1875 -3.640625q-2.140625 -1.171875 -5.21875 -1.078125q-2.515625 0 -4.625 0.796875q-2.09375 0.78125 -3.640625 2.234375q-1.53125 1.4375 -2.421875 3.3125q-0.875 1.859375 -0.875 4.109375l0 29.671875l-5.703125 0q-1.671875 0 -3.125 0q-1.4375 0 -2.65625 0zm58.149414 0l0 -49.187496l11.46875 0l0 49.187496l-11.46875 0zm5.59375 -59.64062q-3.453125 0 -5.375 -1.71875q-1.90625 -1.734375 -1.90625 -4.90625q0 -2.984375 1.953125 -4.84375q1.96875 -1.875 5.328125 -1.875q3.546875 0 5.453125 1.734375q1.921875 1.71875 1.921875 4.984375q0 2.890625 -1.96875 4.765625q-1.953125 1.859375 -5.40625 1.859375zm39.016968 60.57812q-6.078125 0 -11.03125 -3.359375q-4.9375 -3.359375 -7.921875 -9.140625q-2.984375 -5.796875 -2.984375 -13.171875q0 -7.375 2.984375 -13.15625q2.984375 -5.781246 8.109375 -9.046871q5.140625 -3.265625 11.578125 -3.265625q3.734375 0 6.8125 1.078125q3.09375 1.0625 5.421875 3.03125q2.328125 1.953125 3.859375 4.468746q1.546875 2.515625 2.109375 5.40625l-2.515625 -0.640625l0 -12.328121l11.578125 0l0 49.187496l-11.671875 0l0 -11.765625l2.703125 -0.453125q-0.65625 2.515625 -2.390625 4.890625q-1.71875 2.375 -4.28125 4.203125q-2.5625 1.8125 -5.6875 2.9375q-3.125 1.125 -6.671875 1.125zm3.171875 -10.171875q4.015625 0 7.09375 -1.953125q3.078125 -1.96875 4.796875 -5.46875q1.734375 -3.5 1.734375 -8.078125q0 -4.484375 -1.734375 -7.9375q-1.71875 -3.453125 -4.796875 -5.40625q-3.078125 -1.953125 -7.09375 -1.953125q-4.015625 0 -7.046875 1.953125q-3.03125 1.953125 -4.71875 5.40625q-1.671875 3.453125 -1.671875 7.9375q0 4.578125 1.671875 8.078125q1.6875 3.5 4.71875 5.46875q3.03125 1.953125 7.046875 1.953125zm54.588623 10.171875q-6.53125 0 -11.71875 -2.1875q-5.171875 -2.203125 -8.4375 -6.3125l7.46875 -6.4375q2.796875 3.171875 6.25 4.578125q3.453125 1.390625 7.28125 1.390625q1.59375 0 2.84375 -0.359375q1.265625 -0.375 2.1875 -1.125q0.9375 -0.75 1.453125 -1.71875q0.515625 -0.984375 0.515625 -2.203125q0 -2.234375 -1.671875 -3.546875q-0.9375 -0.65625 -2.953125 -1.390625q-2.0 -0.75 -5.171875 -1.5q-5.046875 -1.3125 -8.40625 -3.03125q-3.359375 -1.734375 -5.21875 -3.875q-1.59375 -1.78125 -2.390625 -4.015625q-0.78125 -2.234375 -0.78125 -4.859375q0 -3.265625 1.4375 -5.921875q1.453125 -2.6562462 3.96875 -4.609371q2.515625 -1.96875 5.875 -2.984375q3.359375 -1.03125 7.0 -1.03125q3.734375 0 7.234375 0.9375q3.5 0.921875 6.53125 2.65625q3.046875 1.71875 5.1875 4.140621l-6.34375 7.0q-1.78125 -1.671875 -3.875 -2.984375q-2.09375 -1.3125 -4.25 -2.09375q-2.140625 -0.796875 -4.015625 -0.796875q-1.765625 0 -3.171875 0.328125q-1.390625 0.328125 -2.328125 0.984375q-0.9375 0.640625 -1.453125 1.625q-0.515625 0.984375 -0.515625 2.28125q0.09375 1.125 0.609375 2.109375q0.515625 0.984375 1.453125 1.625q1.03125 0.65625 3.078125 1.5q2.046875 0.84375 5.3125 1.578125q4.578125 1.21875 7.65625 2.71875q3.078125 1.484375 4.859375 3.453125q1.765625 1.671875 2.515625 3.921875q0.75 2.234375 0.75 4.9375q0 4.390625 -2.484375 7.84375q-2.46875 3.453125 -6.71875 5.421875q-4.234375 1.953125 -9.5625 1.953125z" fill-rule="nonzero"/></g></svg>