<svg version="1.1" viewBox="0.0 0.0 578.8057742782153 151.26509186351706" fill="none" stroke="none" stroke-linecap="square" stroke-miterlimit="10" xmlns:xlink="http://www.w3.org/1999/xlink" xmlns="http://www.w3.org/2000/svg"><clipPath id="p.0"><path d="m0 0l578.8058 0l0 151.26509l-578.8058 0l0 -151.26509z" clip-rule="nonzero"/></clipPath><g clip-path="url(#p.0)"><path fill="#000000" fill-opacity="0.0" d="m0 0l578.8058 0l0 151.26509l-578.8058 0z" fill-rule="evenodd"/><path fill="#0000ff" d="m-5.2493436E-7 0l579.2126 0l0 151.74803l-579.2126 0z" fill-rule="evenodd"/><path fill="#ff9900" d="m27.765625 108.6l0 -65.328125l26.234375 0q7.09375 0 12.828125 2.34375q5.75 2.328125 9.890625 6.71875q4.15625 4.375 6.34375 10.359375q2.203125 5.96875 2.203125 13.234375q0 7.28125 -2.203125 13.3125q-2.1875 6.015625 -6.296875 10.359375q-4.109375 4.328125 -9.890625 6.671875q-5.78125 2.328125 -12.875 2.328125l-26.234375 0zm12.140625 -9.421875l-0.9375 -1.78125l14.5625 0q4.578125 0 8.171875 -1.484375q3.59375 -1.5 6.109375 -4.296875q2.515625 -2.796875 3.8125 -6.765625q1.3125 -3.96875 1.3125 -8.921875q0 -4.9375 -1.3125 -8.90625q-1.296875 -3.96875 -3.859375 -6.765625q-2.5625 -2.796875 -6.109375 -4.28125q-3.546875 -1.5 -8.125 -1.5l-14.84375 0l1.21875 -1.59375l0 46.296875zm57.774475 9.421875l0 -49.1875l11.46875 0l0 49.1875l-11.46875 0zm5.59375 -59.640625q-3.453125 0 -5.375 -1.71875q-1.90625 -1.734375 -1.90625 -4.90625q0 -2.984375 1.953125 -4.84375q1.96875 -1.875 5.328125 -1.875q3.546875 0 5.453125 1.734375q1.921875 1.71875 1.921875 4.984375q0 2.890625 -1.96875 4.765625q-1.953125 1.859375 -5.40625 1.859375zm36.204544 59.640625l-20.71875 -49.1875l12.515625 0l14.0 36.78125l-2.421875 0.640625l14.734375 -37.421875l12.234375 0l-21.75 49.1875l-8.59375 0zm40.050568 0l0 -49.1875l11.46875 0l0 49.1875l-11.46875 0zm5.59375 -59.640625q-3.453125 0 -5.375 -1.71875q-1.90625 -1.734375 -1.90625 -4.90625q0 -2.984375 1.953125 -4.84375q1.96875 -1.875 5.328125 -1.875q3.546875 0 5.453125 1.734375q1.921875 1.71875 1.921875 4.984375q0 2.890625 -1.96875 4.765625q-1.953125 1.859375 -5.40625 1.859375zm40.22017 60.578125q-6.53125 0 -11.71875 -3.3125q-5.171875 -3.3125 -8.203125 -9.046875q-3.03125 -5.75 -3.03125 -13.21875q0 -7.375 2.984375 -13.15625q2.984375 -5.78125 8.15625 -9.09375q5.1875 -3.3125 11.71875 -3.3125q3.546875 0 6.859375 1.125q3.3125 1.109375 5.921875 3.03125q2.625 1.90625 4.15625 4.234375q1.546875 2.328125 1.734375 4.859375l-3.078125 0.375l0 -32.484375l11.484375 0l0 69.0625l-11.109375 0l-0.28125 -11.578125l2.234375 0.1875q-0.09375 2.34375 -1.640625 4.484375q-1.53125 2.140625 -3.96875 3.921875q-2.421875 1.765625 -5.640625 2.84375q-3.21875 1.078125 -6.578125 1.078125zm2.25 -9.703125q4.015625 0 7.09375 -2.046875q3.078125 -2.0625 4.796875 -5.609375q1.734375 -3.546875 1.734375 -8.21875q0 -4.578125 -1.734375 -8.15625q-1.71875 -3.59375 -4.796875 -5.59375q-3.078125 -2.015625 -7.09375 -2.015625q-4.015625 0 -7.09375 2.015625q-3.078125 2.0 -4.8125 5.59375q-1.71875 3.578125 -1.71875 8.15625q0 4.671875 1.71875 8.21875q1.734375 3.546875 4.8125 5.609375q3.078125 2.046875 7.09375 2.046875zm60.83902 9.703125q-7.734375 0 -13.671875 -3.265625q-5.921875 -3.265625 -9.234375 -8.90625q-3.3125 -5.65625 -3.3125 -12.9375q0 -5.78125 1.859375 -10.546875q1.875 -4.765625 5.1875 -8.265625q3.3125 -3.5 7.921875 -5.40625q4.625 -1.90625 10.140625 -1.90625q4.84375 0 9.046875 1.859375q4.203125 1.859375 7.28125 5.09375q3.078125 3.21875 4.703125 7.65625q1.640625 4.421875 1.546875 9.65625l-0.09375 4.0l-39.84375 0l-2.15625 -7.828125l32.390625 0l-1.5 1.578125l0 -2.046875q-0.265625 -2.890625 -1.859375 -5.078125q-1.59375 -2.203125 -4.0625 -3.453125q-2.46875 -1.265625 -5.453125 -1.265625q-4.578125 0 -7.703125 1.78125q-3.125 1.765625 -4.71875 5.078125q-1.578125 3.3125 -1.578125 8.25q0 4.765625 2.0 8.3125q2.015625 3.546875 5.6875 5.46875q3.6875 1.90625 8.640625 1.90625q3.453125 0 6.34375 -1.125q2.890625 -1.125 6.25 -4.015625l5.703125 7.9375q-2.53125 2.328125 -5.75 3.96875q-3.21875 1.625 -6.765625 2.5625q-3.546875 0.9375 -7.0 0.9375zm31.643463 -0.9375l0 -49.1875l11.203125 0l0.1875 10.078125l-2.15625 1.125q0.9375 -3.359375 3.640625 -6.109375q2.71875 -2.75 6.4375 -4.421875q3.734375 -1.6875 7.65625 -1.6875q5.609375 0 9.375 2.234375q3.78125 2.234375 5.6875 6.71875q1.921875 4.484375 1.921875 11.203125l0 30.046875l-11.46875 0l0 -29.21875q0 -3.71875 -1.03125 -6.1875q-1.03125 -2.484375 -3.1875 -3.640625q-2.140625 -1.171875 -5.21875 -1.078125q-2.515625 0 -4.625 0.796875q-2.09375 0.78125 -3.640625 2.234375q-1.53125 1.4375 -2.421875 3.3125q-0.875 1.859375 -0.875 4.109375l0 29.671875l-5.703125 0q-1.671875 0 -3.125 0q-1.4375 0 -2.65625 0zm76.618164 0.9375q-6.53125 0 -11.71875 -3.3125q-5.171875 -3.3125 -8.203125 -9.046875q-3.03125 -5.75 -3.03125 -13.21875q0 -7.375 2.984375 -13.15625q2.984375 -5.78125 8.15625 -9.09375q5.1875 -3.3125 11.71875 -3.3125q3.546875 0 6.859375 1.125q3.3125 1.109375 5.921875 3.03125q2.625 1.90625 4.15625 4.234375q1.546875 2.328125 1.734375 4.859375l-3.078125 0.375l0 -32.484375l11.484375 0l0 69.0625l-11.109375 0l-0.28125 -11.578125l2.234375 0.1875q-0.09375 2.34375 -1.640625 4.484375q-1.53125 2.140625 -3.96875 3.921875q-2.421875 1.765625 -5.640625 2.84375q-3.21875 1.078125 -6.578125 1.078125zm2.25 -9.703125q4.015625 0 7.09375 -2.046875q3.078125 -2.0625 4.796875 -5.609375q1.734375 -3.546875 1.734375 -8.21875q0 -4.578125 -1.734375 -8.15625q-1.71875 -3.59375 -4.796875 -5.59375q-3.078125 -2.015625 -7.09375 -2.015625q-4.015625 0 -7.09375 2.015625q-3.078125 2.0 -4.8125 5.59375q-1.71875 3.578125 -1.71875 8.15625q0 4.671875 1.71875 8.21875q1.734375 3.546875 4.8125 5.609375q3.078125 2.046875 7.09375 2.046875zm60.292145 9.703125q-7.375 0 -13.171875 -3.3125q-5.78125 -3.3125 -9.140625 -9.09375q-3.359375 -5.796875 -3.359375 -13.171875q0 -7.375 3.359375 -13.15625q3.359375 -5.78125 9.140625 -9.09375q5.796875 -3.3125 13.171875 -3.3125q7.265625 0 13.046875 3.3125q5.796875 3.3125 9.109375 9.09375q3.3125 5.78125 3.3125 13.15625q0 7.375 -3.3125 13.171875q-3.3125 5.78125 -9.109375 9.09375q-5.78125 3.3125 -13.046875 3.3125zm0 -10.171875q4.0 0 7.125 -2.046875q3.140625 -2.0625 4.953125 -5.515625q1.828125 -3.453125 1.734375 -7.84375q0.09375 -4.484375 -1.734375 -7.9375q-1.8125 -3.453125 -4.953125 -5.453125q-3.125 -2.0 -7.125 -2.0q-4.015625 0 -7.234375 2.0q-3.21875 2.0 -5.0 5.5q-1.765625 3.5 -1.765625 7.890625q0 4.390625 1.765625 7.84375q1.78125 3.453125 5.0 5.515625q3.21875 2.046875 7.234375 2.046875z" fill-rule="nonzero"/><path fill="#ffffff" d="m517.7388 109.5375q-8.3906555 0 -14.7344055 -3.078125q-6.34375 -3.078125 -10.828125 -9.0625l7.1875 -9.421875q4.75 6.15625 9.234375 8.59375q4.4844055 2.421875 10.0781555 2.421875q3.171875 0 5.78125 -0.984375q2.625 -0.984375 4.109375 -2.703125q1.5 -1.734375 1.5 -3.96875q0 -1.59375 -0.609375 -2.9375q-0.609375 -1.359375 -1.828125 -2.421875q-1.203125 -1.078125 -2.984375 -2.015625q-1.765625 -0.9375 -4.015625 -1.578125q-2.234375 -0.65625 -4.9375 -1.21875q-6.9062805 -1.40625 -11.4375305 -4.0625q-4.515625 -2.65625 -6.765625 -6.671875q-2.234375 -4.015625 -2.234375 -9.421875q0 -4.109375 1.8125 -7.5625q1.828125 -3.453125 5.0 -5.96875q3.171875 -2.53125 7.375 -3.921875q4.2031555 -1.40625 9.0469055 -1.40625q7.65625 0 13.53125 2.765625q5.890625 2.75 9.71875 8.15625l-6.90625 8.40625q-3.1875 -4.296875 -7.34375 -6.484375q-4.140625 -2.203125 -9.0 -2.203125q-3.359375 0 -5.828125 0.9375q-2.4687805 0.9375 -3.8750305 2.671875q-1.40625 1.71875 -1.40625 4.140625q0 1.859375 0.84375 3.3125q0.84375 1.453125 2.375 2.578125q1.5469055 1.109375 3.9687805 1.953125q2.4375 0.828125 5.515625 1.484375q5.125 1.03125 9.234375 2.765625q4.109375 1.71875 7.0 4.109375q2.890625 2.375 4.375 5.40625q1.5 3.03125 1.5 6.765625q0 6.4375 -3.03125 11.0625q-3.03125 4.609375 -8.546875 7.09375q-5.5 2.46875 -12.875 2.46875zm-5.59375 7.5625l0.375 -42.75l8.5 3.078125l0.359375 39.671875l-9.234375 0zm12.140625 -39.671875l-8.5 -3.078125l-0.375 -38.921875l9.234375 0l-0.359375 42.0z" fill-rule="nonzero"/></g></svg>